# xmcd
#
# Track frame offsets: 
#        183
#        14605
#        25188
#        36050
#        53245
#        83803
#        98763
#        113330
#        127868
#        144643
#        159370
#
# Disc length: 2305 seconds
#
# Revision: 1
# Processed by: cddbd v1.5.2PL0 Copyright (c) Steve Scherf et al.
# Submitted via: ExactAudioCopyFreeDBPlugin 1.0
#
DISCID=7d08ff0b
DTITLE=Canned Heat - Canned Heat
DYEAR=1967
DGENRE=Blues
TTITLE0=Rollin' And Tumblin'
TTITLE1=Bullfrog Blues
TTITLE2=Evil Is Going On
TTITLE3=Going Down Slow
TTITLE4=Catfish Blues
TTITLE5=Dust My Broom
TTITLE6=Help Me
TTITLE7=Big Road Blues
TTITLE8=Story Of My Life
TTITLE9=The Road Song
TTITLE10=Rich Woman
EXTD=
EXTT0=
EXTT1=
EXTT2=
EXTT3=
EXTT4=
EXTT5=
EXTT6=
EXTT7=
EXTT8=
EXTT9=
EXTT10=
PLAYORDER=
